<?xml version="1.0" encoding="UTF-8" standalone="no"?>
<!-- Created with Inkscape (http://www.inkscape.org/) -->

<svg
   width="1024"
   height="1024"
   viewBox="0 0 270.93332 270.93332"
   version="1.1"
   id="svg1"
   inkscape:version="1.3.1 (91b66b0783, 2023-11-16)"
   sodipodi:docname="grimheart.svg"
   xmlns:inkscape="http://www.inkscape.org/namespaces/inkscape"
   xmlns:sodipodi="http://sodipodi.sourceforge.net/DTD/sodipodi-0.dtd"
   xmlns="http://www.w3.org/2000/svg"
   xmlns:svg="http://www.w3.org/2000/svg">
  <sodipodi:namedview
     id="namedview1"
     pagecolor="#ffffff"
     bordercolor="#000000"
     borderopacity="0.25"
     inkscape:showpageshadow="2"
     inkscape:pageopacity="0.0"
     inkscape:pagecheckerboard="0"
     inkscape:deskcolor="#d1d1d1"
     inkscape:document-units="mm"
     showguides="true"
     inkscape:zoom="0.35355339"
     inkscape:cx="332.34019"
     inkscape:cy="316.78384"
     inkscape:window-width="1350"
     inkscape:window-height="1032"
     inkscape:window-x="2119"
     inkscape:window-y="48"
     inkscape:window-maximized="0"
     inkscape:current-layer="g7" />
  <defs
     id="defs1" />
  <g
     inkscape:groupmode="layer"
     id="layer5"
     inkscape:label="Layer 4" />
  <g
     inkscape:groupmode="layer"
     id="layer4"
     inkscape:label="Layer 3" />
  <g
     inkscape:groupmode="layer"
     id="layer3"
     inkscape:label="Layer 2" />
  <g
     inkscape:groupmode="layer"
     id="layer1"
     inkscape:label="Layer 1">
    <g
       id="g7"
       transform="matrix(2.0477229,0,0,2.0477229,-141.93031,-112.15122)">
      <path
         style="fill:#81ddff;fill-opacity:1;fill-rule:nonzero;stroke-width:0.229809"
         d="m 135.45918,57.611337 -29.4156,41.595417 58.83114,0.229815 z"
         id="path7"
         sodipodi:nodetypes="cccc" />
      <path
         style="fill:#46add3;fill-opacity:1;fill-rule:nonzero;stroke-width:0.229809"
         d="m 107.93123,93.078109 c 0,0 -5.11879,-19.256185 6.98752,-27.462408 l 20.98934,28.437405 v 20.962474 z"
         id="path5"
         sodipodi:nodetypes="ccccc" />
      <path
         style="fill:#46add3;fill-opacity:1;fill-rule:nonzero;stroke-width:0.229809"
         d="m 162.98711,93.078109 c 0,0 5.11872,-19.256185 -6.98748,-27.462408 l -20.98935,28.437405 v 20.962474 z"
         id="path6"
         sodipodi:nodetypes="ccccc" />
      <path
         style="fill:#46add3;fill-opacity:1;fill-rule:nonzero;stroke-width:0.229809"
         d="m 135.58839,129.64053 c 11.78129,-8.93748 14.67333,-16.49512 23.2005,-14.66918 0,0 11.29373,4.3834 17.6312,3.67088 1.63556,0.0139 6.76175,-3.31321 9.54325,-14.83913 l -32.33741,-4.550008 z"
         id="path3"
         sodipodi:nodetypes="cccccc" />
      <path
         style="fill:#46add3;fill-opacity:1;fill-rule:nonzero;stroke-width:0.229809"
         d="m 135.58843,129.64053 c -11.78122,-8.93748 -14.67326,-16.49512 -23.20039,-14.66918 0,0 -11.29385,4.3834 -17.631329,3.67088 -1.63555,0.0139 -6.761741,-3.31321 -9.543247,-14.83913 l 32.337506,-4.550008 z"
         id="path4"
         sodipodi:nodetypes="cccccc" />
      <path
         style="fill:#81ddff;fill-opacity:1;fill-rule:nonzero;stroke-width:0.229809"
         d="m 135.01028,136.91791 c -0.11707,-21.12222 -0.11024,-19.03853 0,-31.31672 9.7879,-12.483612 19.09296,-16.758961 29.67261,-18.533333 12.29297,-2.06172 26.18387,-16.124571 26.18387,-16.124571 0,0 0.59086,20.029206 -0.61068,30.324174 -1.27269,5.98454 -3.11825,6.33084 -17.63629,5.53347 -5.678,-0.31185 -16.34591,-0.12521 -22.96082,8.9206 -2.88793,3.94921 -2.39567,11.26518 2.39434,13.10333 5.31904,2.04117 23.34592,0.42011 23.34592,0.42011 0,0 -11.45064,10.95738 -21.16155,20.16974 -10.52483,8.86666 -19.2274,-12.4968 -19.2274,-12.4968 z"
         id="path1"
         sodipodi:nodetypes="scsscsssscs" />
      <path
         style="fill:#81ddff;fill-opacity:1;fill-rule:nonzero;stroke-width:0.229809"
         d="m 135.90812,136.91786 c 0.11707,-21.12222 0.11024,-19.03853 0,-31.31673 C 126.12021,93.117516 116.81516,88.842167 106.23545,87.067795 93.942484,85.006074 80.051657,70.943223 80.051657,70.943223 c 0,0 -0.590857,20.029207 0.610679,30.324167 1.272681,5.98454 3.118233,6.33084 17.636185,5.53349 5.678009,-0.31186 16.345999,-0.12523 22.960909,8.92059 2.88793,3.94921 2.39567,11.26517 -2.39434,13.10332 -5.31903,2.04118 -23.345979,0.42013 -23.345979,0.42013 0,0 11.450659,10.95737 21.161599,20.16974 10.52484,8.86664 19.22741,-12.4968 19.22741,-12.4968 z"
         id="path2"
         sodipodi:nodetypes="scsscsssscs" />
      <path
         style="fill:#81ddff;fill-opacity:1;fill-rule:nonzero;stroke-width:0.15776"
         d="m 135.46608,141.51573 -13.44287,21.41694 13.44287,21.41695 13.44285,-21.41695 z"
         id="path8"
         sodipodi:nodetypes="ccccc" />
    </g>
  </g>
</svg>
